<svg id="user" xmlns="http://www.w3.org/2000/svg" width="24.085" height="28.868" viewBox="0 0 24.085 28.868">
  <path id="Path_12" data-name="Path 12" d="M93.985,13.906A6.728,6.728,0,0,0,98.9,11.869a6.727,6.727,0,0,0,2.037-4.916A6.729,6.729,0,0,0,98.9,2.037a6.951,6.951,0,0,0-9.832,0,6.728,6.728,0,0,0-2.037,4.916,6.727,6.727,0,0,0,2.037,4.916A6.729,6.729,0,0,0,93.985,13.906Zm0,0" transform="translate(-82.125 0)" fill="#fff"/>
  <path id="Path_13" data-name="Path 13" d="M24.026,255.57a17.17,17.17,0,0,0-.234-1.824,14.369,14.369,0,0,0-.449-1.834,9.059,9.059,0,0,0-.754-1.71,6.453,6.453,0,0,0-1.137-1.482,5.012,5.012,0,0,0-1.633-1.026,5.643,5.643,0,0,0-2.085-.377,2.116,2.116,0,0,0-1.13.479c-.339.221-.735.476-1.177.759a6.745,6.745,0,0,1-1.523.671,5.915,5.915,0,0,1-3.726,0,6.729,6.729,0,0,1-1.522-.671c-.438-.28-.835-.535-1.178-.759a2.113,2.113,0,0,0-1.13-.479,5.637,5.637,0,0,0-2.085.378A5.007,5.007,0,0,0,2.63,248.72,6.454,6.454,0,0,0,1.494,250.2a9.078,9.078,0,0,0-.754,1.711,14.4,14.4,0,0,0-.448,1.834,17.112,17.112,0,0,0-.234,1.825c-.038.552-.058,1.126-.058,1.7A4.794,4.794,0,0,0,1.423,260.9a5.125,5.125,0,0,0,3.669,1.338h13.9a5.124,5.124,0,0,0,3.668-1.338,4.792,4.792,0,0,0,1.424-3.627c0-.582-.02-1.155-.058-1.705Zm0,0" transform="translate(0 -233.372)" fill="#fff"/>
</svg>
